<?xml version="1.0" encoding="utf-8"?>
<!-- Generator: Adobe Illustrator 23.0.3, SVG Export Plug-In . SVG Version: 6.00 Build 0)  -->
<svg version="1.1" id="Layer_1" xmlns="http://www.w3.org/2000/svg" xmlns:xlink="http://www.w3.org/1999/xlink" x="0px" y="0px"
	 viewBox="0 0 464 936" style="enable-background:new 0 0 464 936;" xml:space="preserve">
<style type="text/css">
	.st0{fill:#181818;}
	.st1{fill:#323233;}
	.st2{opacity:0.4;fill:#AFAFAE;enable-background:new    ;}
	.st3{fill:#AFAFAE;}
	.st4{fill-rule:evenodd;clip-rule:evenodd;fill:#AFAFAE;}
	.st5{font-family:'Roboto-Medium';}
	.st6{font-size:16px;}
	.st7{fill:#3D4144;}
</style>
<path id="Button_3_" class="st0" d="M461,282h-3V180h3c1.7,0,3,1.3,3,3v96C464,280.7,462.7,282,461,282z"/>
<path id="Button_2_" class="st0" d="M6,154H3c-1.7,0-3-1.3-3-3v-30c0-1.7,1.3-3,3-3h3V154z"/>
<path id="Button_1_" class="st0" d="M6,244H3c-1.7,0-3-1.3-3-3v-58c0-1.7,1.3-3,3-3h3V244z"/>
<path id="Button" class="st0" d="M6,314H3c-1.7,0-3-1.3-3-3v-58c0-1.7,1.3-3,3-3h3V314z"/>
<path class="st0" d="M402.9,0H61.1C30.1,0,5,25.1,5,56.1v823.8c0,31,25.1,56.1,56.1,56.1h341.8c31,0,56.1-25.1,56.1-56.1V56.1
	C459,25.1,433.9,0,402.9,0z M439,876c0,22.1-17.9,40-40,40H65c-22.1,0-40-17.9-40-40V120.8h414V876z"/>
<path id="Browser_header" class="st1" d="M439,60v59.8H25V60c0-22.1,17.9-40,40-40h48.1c2.2,0,4,1.8,4,4v3.7c0,13.8,11.2,25,25,25
	h180c13.8,0,25-11.2,25-25V24c0-2.2,1.8-4,4-4h48C421.1,20,439,37.9,439,60z"/>
<path d="M304.6,907.3h-143c-1.4,0-2.5-1.1-2.5-2.5v0c0-1.4,1.1-2.5,2.5-2.5h143c1.4,0,2.5,1.1,2.5,2.5v0
	C307.1,906.2,305.9,907.3,304.6,907.3z"/>
<g id="Status_Bar">
	<g id="Battery-Icon" transform="translate(34.250000, 1.000000)">
		<path id="Combined-Shape" class="st2" d="M366.6,38.6c-1.2,0-1.7,0.1-2.3,0.4c-0.4,0.2-0.8,0.6-1,1c-0.3,0.5-0.4,1-0.4,2.3V46
			c0,1.2,0.1,1.7,0.4,2.3c0.2,0.4,0.6,0.8,1,1c0.5,0.3,1,0.4,2.3,0.4h15.7c1.2,0,1.7-0.1,2.3-0.4c0.4-0.2,0.8-0.6,1-1
			c0.3-0.5,0.4-1,0.4-2.3v-3.7c0-1.2-0.1-1.7-0.4-2.3c-0.2-0.4-0.6-0.8-1-1c-0.5-0.3-1-0.4-2.3-0.4H366.6z M386.3,45v-2
			c0,0,0.9-0.1,0.9,1C387.2,45.1,386.3,45,386.3,45z"/>
		<path id="Capacity" class="st3" d="M366.3,40.1h16.2c0.7,0,0.9,0.1,1.2,0.2c0.2,0.1,0.4,0.3,0.6,0.6c0.1,0.2,0.2,0.5,0.2,1.2v4.2
			c0,0.7-0.1,0.9-0.2,1.2c-0.1,0.2-0.3,0.4-0.6,0.6c-0.2,0.1-0.5,0.2-1.2,0.2h-16.2c-0.7,0-0.9-0.1-1.2-0.2
			c-0.2-0.1-0.4-0.3-0.6-0.6c-0.1-0.2-0.2-0.5-0.2-1.2v-4.2c0-0.7,0.1-0.9,0.2-1.2c0.1-0.2,0.3-0.4,0.6-0.6
			C365.4,40.2,365.7,40.1,366.3,40.1z"/>
	</g>
	<path id="Combined-Shape_1_" class="st4" d="M388.2,44.4c-1.4-1.3-3.4-2.2-5.5-2.2c-2.1,0-4,0.8-5.5,2.2c-0.1,0.1-0.3,0.1-0.4,0
		l-1.1-1.1c-0.1-0.1-0.1-0.3,0-0.4c1.8-1.7,4.3-2.8,6.9-2.8s5.1,1.1,6.9,2.8c0.1,0.1,0.1,0.3,0,0.4l-1.1,1.1
		C388.5,44.5,388.3,44.5,388.2,44.4z M385.7,46.8c-0.8-0.7-1.9-1.2-3-1.2s-2.2,0.4-3,1.2c-0.1,0.1-0.3,0.1-0.4,0l-1.1-1.1
		c-0.1-0.1-0.1-0.3,0-0.4c1.2-1.1,2.8-1.7,4.5-1.7s3.3,0.7,4.5,1.7c0.1,0.1,0.1,0.3,0,0.4l-1.1,1.1C386,46.9,385.9,46.9,385.7,46.8z
		 M384.8,48.2l-1.8,1.8c-0.1,0.1-0.3,0.1-0.4,0l-1.8-1.8c-0.1-0.1-0.1-0.3,0-0.4c0.6-0.5,1.3-0.7,2-0.7c0.8,0,1.5,0.3,2,0.7
		C384.9,47.9,384.9,48.1,384.8,48.2z"/>
	<path id="Combined-Shape_2_" class="st4" d="M352.5,45.8h0.5c0.4,0,0.6,0,0.7,0.1c0.2,0.1,0.3,0.2,0.4,0.4c0.1,0.2,0.1,0.3,0.1,0.7
		v2c0,0.4,0,0.6-0.1,0.7c-0.1,0.2-0.2,0.3-0.4,0.4c-0.2,0.1-0.3,0.1-0.7,0.1h-0.5c-0.4,0-0.6,0-0.7-0.1c-0.2-0.1-0.3-0.2-0.4-0.4
		c-0.1-0.2-0.1-0.3-0.1-0.7v-2c0-0.4,0-0.6,0.1-0.7c0.1-0.2,0.2-0.3,0.4-0.4C352,45.9,352.1,45.8,352.5,45.8z M357,44.3h0.5
		c0.4,0,0.6,0,0.7,0.1c0.2,0.1,0.3,0.2,0.4,0.4c0.1,0.2,0.1,0.3,0.1,0.7v3.5c0,0.4,0,0.6-0.1,0.7c-0.1,0.2-0.2,0.3-0.4,0.4
		c-0.2,0.1-0.3,0.1-0.7,0.1H357c-0.4,0-0.6,0-0.7-0.1c-0.2-0.1-0.3-0.2-0.4-0.4c-0.1-0.2-0.1-0.3-0.1-0.7v-3.5c0-0.4,0-0.6,0.1-0.7
		c0.1-0.2,0.2-0.3,0.4-0.4C356.5,44.4,356.6,44.3,357,44.3z M361.5,42.3h0.5c0.4,0,0.6,0,0.7,0.1c0.2,0.1,0.3,0.2,0.4,0.4
		c0.1,0.2,0.1,0.3,0.1,0.7v5.5c0,0.4,0,0.6-0.1,0.7c-0.1,0.2-0.2,0.3-0.4,0.4c-0.2,0.1-0.3,0.1-0.7,0.1h-0.5c-0.4,0-0.6,0-0.7-0.1
		c-0.2-0.1-0.3-0.2-0.4-0.4c-0.1-0.2-0.1-0.3-0.1-0.7v-5.5c0-0.4,0-0.6,0.1-0.7c0.1-0.2,0.2-0.3,0.4-0.4
		C361,42.4,361.1,42.3,361.5,42.3z M366,40.3h0.5c0.4,0,0.6,0,0.7,0.1c0.2,0.1,0.3,0.2,0.4,0.4c0.1,0.2,0.1,0.3,0.1,0.7v7.5
		c0,0.4,0,0.6-0.1,0.7c-0.1,0.2-0.2,0.3-0.4,0.4c-0.2,0.1-0.3,0.1-0.7,0.1H366c-0.4,0-0.6,0-0.7-0.1c-0.2-0.1-0.3-0.2-0.4-0.4
		c-0.1-0.2-0.1-0.3-0.1-0.7v-7.5c0-0.4,0-0.6,0.1-0.7c0.1-0.2,0.2-0.3,0.4-0.4C365.5,40.4,365.6,40.3,366,40.3z"/>
	<g>
		<text transform="matrix(1 0 0 1 54.5605 51.6284)" class="st3 st5 st6">10:36</text>
	</g>
</g>
<path class="st7" d="M415.9,103.8H50c-4.4,0-8-3.6-8-8v-20c0-4.4,3.6-8,8-8h365.9c4.4,0,8,3.6,8,8v20
	C423.9,100.3,420.3,103.8,415.9,103.8z"/>
</svg>
