<svg xmlns="http://www.w3.org/2000/svg" viewBox="0 0 496 496">
    <path fill="#1E8CBE" d="M424 0H72C36.704 0 8 28.704 8 64v288c0 35.296 28.704 64 64 64v64c0 6.208 3.584 11.872 9.216 14.496A16.232 16.232 0 0088 496a16.06 16.06 0 0010.24-3.712L189.792 416H424c35.296 0 64-28.704 64-64V64c0-35.296-28.704-64-64-64zm32 352c0 17.632-14.336 32-32 32H184c-3.744 0-7.36 1.312-10.24 3.712L104 445.824V400c0-8.832-7.168-16-16-16H72c-17.664 0-32-14.368-32-32V64c0-17.632 14.336-32 32-32h352c17.664 0 32 14.368 32 32v288z"/>
    <path fill="#1E8CBE" d="M328 128c-35.296 0-64 28.704-64 64 0 11.712 3.392 22.56 8.896 32h-49.792c5.504-9.44 8.896-20.288 8.896-32 0-35.296-28.704-64-64-64s-64 28.704-64 64 28.704 64 64 64h160c35.296 0 64-28.704 64-64s-28.704-64-64-64zm-160 96c-17.664 0-32-14.368-32-32s14.336-32 32-32 32 14.368 32 32-14.336 32-32 32zm160 0c-17.664 0-32-14.368-32-32s14.336-32 32-32 32 14.368 32 32-14.336 32-32 32z"/>
</svg>