<svg width="10px" height="10px" viewBox="0 0 10 10" version="1.1" xmlns="http://www.w3.org/2000/svg">
    <path d="M5.02499195,0 C5.6343655,0 6.19686416,0.152343387 6.71248793,0.45703016 C7.2281117,0.761716934 7.63826697,1.17187221 7.94295375,1.68749598 C8.24764052,2.20311975 8.39998391,2.76561841 8.39998391,3.37499195 C8.39998391,4.17186505 8.15389074,4.87498838 7.66170442,5.48436192 C7.16951809,6.09373547 6.54061346,6.48435966 5.77499017,6.65623413 L5.77499017,7.87498122 L6.61873815,7.87498122 C6.69686285,7.87498122 6.76326918,7.90232503 6.81795643,7.95701228 C6.87264368,8.01169953 6.89998748,8.07810586 6.89998748,8.15623055 L6.89998748,9.09372832 C6.89998748,9.17185301 6.87264368,9.23825934 6.81795643,9.29294659 C6.76326918,9.34763384 6.69686285,9.37497765 6.61873815,9.37497765 L5.77499017,9.37497765 L5.77499017,9.71875067 C5.77499017,9.79687537 5.74764636,9.8632817 5.69295911,9.91796895 C5.63827186,9.9726562 5.57186553,10 5.49374084,10 L4.55624307,10 C4.47811838,10 4.41171205,9.9726562 4.3570248,9.91796895 C4.30233755,9.8632817 4.27499374,9.79687537 4.27499374,9.71875067 L4.27499374,9.37497765 L3.43124575,9.37497765 C3.35312106,9.37497765 3.28671473,9.34763384 3.23202748,9.29294659 C3.17734023,9.23825934 3.15,9.17185301 3.15,9.09372832 L3.15,8.15623055 C3.15,8.07810586 3.17734023,8.01169953 3.23202748,7.95701228 C3.28671473,7.90232503 3.35312106,7.87498122 3.43124575,7.87498122 L4.27499374,7.87498122 L4.27499374,6.65623413 C3.50937045,6.48435966 2.88046582,6.09373547 2.38827949,5.48436192 C1.89609316,4.87498838 1.65,4.17186505 1.65,3.37499195 C1.65,2.76561841 1.80234339,2.20311975 2.10703016,1.68749598 C2.41171693,1.17187221 2.82187221,0.761716934 3.33749598,0.45703016 C3.85311975,0.152343387 4.41561841,0 5.02499195,0 Z M5.02499195,1.49999642 C4.50936818,1.49999642 4.0679631,1.68358962 3.70077636,2.05077636 C3.33358962,2.4179631 3.14999642,2.85936818 3.14999642,3.37499195 C3.14999642,3.89061572 3.33358962,4.3320208 3.70077636,4.69920755 C4.0679631,5.06639429 4.50936818,5.24998748 5.02499195,5.24998748 C5.54061572,5.24998748 5.9820208,5.06639429 6.34920755,4.69920755 C6.71639429,4.3320208 6.89998748,3.89061572 6.89998748,3.37499195 C6.89998748,2.85936818 6.71639429,2.4179631 6.34920755,2.05077636 C5.9820208,1.68358962 5.54061572,1.49999642 5.02499195,1.49999642 Z" id="v" fill="#FF63BA" fill-rule="nonzero"/>
</svg>