<svg width="10px" height="10px" viewBox="0 0 10 10" version="1.1" xmlns="http://www.w3.org/2000/svg">
    <path d="M9.72125292,0.00235004909 C9.79937761,0.00235004909 9.86578394,0.0296938531 9.92047119,0.0843811035 C9.97515844,0.139068354 10.0025022,0.205474684 10.0025022,0.283599379 L8.99997854,3.13280741 C8.99997854,3.257807 8.94138493,3.34374441 8.82419771,3.3906193 C8.73044793,3.42811921 8.64919805,3.42061923 8.58044825,3.36811935 L8.13279311,2.94530786 L6.23436014,4.82030339 C6.57810944,5.36717697 6.74998391,5.96873815 6.74998391,6.62498659 C6.74998391,7.23436014 6.59764052,7.79685879 6.29295375,8.31248257 C5.98826697,8.82810634 5.5781117,9.23826161 5.06248793,9.54294838 C4.54686416,9.84763516 3.9843655,9.99997854 3.37499195,9.99997854 C2.76561841,9.99997854 2.20311975,9.84763516 1.68749598,9.54294838 C1.17187221,9.23826161 0.761716934,8.82810634 0.45703016,8.31248257 C0.152343387,7.79685879 0,7.23436014 0,6.62498659 C0,6.01561304 0.152343387,5.45311438 0.45703016,4.93749061 C0.761716934,4.42186684 1.17187221,4.01171157 1.68749598,3.7070248 C2.20311975,3.40233802 2.76561841,3.24999464 3.37499195,3.24999464 C4.03124039,3.24999464 4.63280157,3.42186911 5.17967515,3.76561841 L7.05467068,1.86718543 L6.65623413,1.46874888 C6.57810944,1.39062419 6.56248435,1.29296805 6.60935924,1.17578083 C6.65623413,1.05859361 6.74217154,1 6.86717113,1 L9.72125292,0.00235004909 Z M3.37499195,4.74999106 C2.85936818,4.74999106 2.4179631,4.93358425 2.05077636,5.300771 C1.68358962,5.66795774 1.49999642,6.10936282 1.49999642,6.62498659 C1.49999642,7.14061036 1.68358962,7.58201544 2.05077636,7.94920218 C2.4179631,8.31638893 2.85936818,8.49998212 3.37499195,8.49998212 C3.89061572,8.49998212 4.3320208,8.31638893 4.69920755,7.94920218 C5.06639429,7.58201544 5.24998748,7.14061036 5.24998748,6.62498659 C5.24998748,6.10936282 5.06639429,5.66795774 4.69920755,5.300771 C4.3320208,4.93358425 3.89061572,4.74999106 3.37499195,4.74999106 Z" id="m" fill="#03A3FF" fill-rule="nonzero"/>
</svg>